    <svg
       class="bi"
       version="1.1"
       id="svg9"
       xml:space="preserve"
       width="68"
       height="68"
       viewBox="0 0 700 700"
       sodipodi:docname="CMMAcolorlogo.svg"
       inkscape:version="1.1.2 (b8e25be833, 2022-02-05)"
       xmlns:inkscape="http://www.inkscape.org/namespaces/inkscape"
       xmlns:sodipodi="http://sodipodi.sourceforge.net/DTD/sodipodi-0.dtd"
       xmlns="http://www.w3.org/2000/svg"
       xmlns:svg="http://www.w3.org/2000/svg"><sodipodi:namedview
	 id="namedview5863"
	 pagecolor="#ffffff"
	 bordercolor="#666666"
	 borderopacity="1.0"
	 inkscape:pageshadow="2"
	 inkscape:pageopacity="0.0"
	 inkscape:pagecheckerboard="0"
	 showgrid="false"
	 width="700px"
	 inkscape:zoom="0.5050737"
	 inkscape:cx="434.59004"
	 inkscape:cy="472.20831"
	 inkscape:window-width="1368"
	 inkscape:window-height="842"
	 inkscape:window-x="-6"
	 inkscape:window-y="-6"
	 inkscape:window-maximized="1"
	 inkscape:current-layer="svg9" /><defs
	 id="defs13"><clipPath
	   clipPathUnits="userSpaceOnUse"
	   id="clipPath23"><path
	     d="M 0,792 H 612 V 0 H 0 Z"
	     id="path21" /></clipPath><clipPath
	   clipPathUnits="userSpaceOnUse"
	   id="clipPath43"><path
	     d="M 0,792 H 612 V 0 H 0 Z"
	     id="path41" /></clipPath><clipPath
	   clipPathUnits="userSpaceOnUse"
	   id="clipPath59"><path
	     d="M 0,792 H 612 V 0 H 0 Z"
	     id="path57" /></clipPath><clipPath
	   clipPathUnits="userSpaceOnUse"
	   id="clipPath79"><path
	     d="M 0,792 H 612 V 0 H 0 Z"
	     id="path77" /></clipPath><clipPath
	   clipPathUnits="userSpaceOnUse"
	   id="clipPath191"><path
	     d="M 0,792 H 612 V 0 H 0 Z"
	     id="path189" /></clipPath></defs><g
	 id="g15"
	 transform="matrix(1.3333333,0,0,-1.3333333,-57.441456,897.23799)"
	 style="display:inline"><g
	   id="g17"><g
	     id="g19"
	     clip-path="url(#clipPath23)"><g
	       id="g25"
	       transform="translate(508.5293,410.4277)"><path
		 d="m 0,0 c 0,27.4 -5.365,53.978 -15.947,78.996 -10.221,24.167 -24.856,45.871 -43.494,64.511 -18.641,18.639 -40.345,33.273 -64.512,43.495 -25.018,10.581 -51.596,15.947 -78.995,15.947 -27.4,0 -53.978,-5.366 -78.995,-15.947 -24.166,-10.222 -45.871,-24.856 -64.511,-43.495 -18.64,-18.64 -33.274,-40.344 -43.495,-64.511 C -400.531,53.978 -405.896,27.4 -405.896,0 c 0,-27.399 5.365,-53.977 15.947,-78.994 10.221,-24.167 24.855,-45.871 43.495,-64.511 18.64,-18.64 40.345,-33.273 64.511,-43.495 25.018,-10.582 51.595,-15.947 78.995,-15.947 27.399,0 53.977,5.365 78.995,15.947 24.167,10.222 45.871,24.855 64.512,43.495 18.638,18.64 33.273,40.344 43.494,64.511 C -5.365,-53.977 0,-27.399 0,0"
		 style="fill:#ed1c24;fill-opacity:1;fill-rule:evenodd;stroke:none"
		 id="path27" /></g><g
	       id="g29"
	       transform="translate(498.0742,410.4277)"><path
		 d="m 0,0 c 0,25.988 -5.089,51.197 -15.126,74.927 -9.694,22.922 -23.574,43.509 -41.253,61.187 -17.679,17.679 -38.265,31.559 -61.186,41.254 -23.731,10.037 -48.94,15.126 -74.928,15.126 -25.987,0 -51.196,-5.089 -74.927,-15.126 -22.922,-9.695 -43.508,-23.575 -61.186,-41.254 -17.679,-17.678 -31.559,-38.265 -41.254,-61.187 -10.037,-23.73 -15.126,-48.939 -15.126,-74.927 0,-25.987 5.089,-51.196 15.126,-74.927 9.695,-22.922 23.575,-43.508 41.254,-61.186 17.678,-17.68 38.264,-31.56 61.186,-41.255 23.731,-10.037 48.94,-15.126 74.927,-15.126 25.988,0 51.197,5.089 74.928,15.126 22.921,9.695 43.507,23.575 61.186,41.255 17.679,17.678 31.559,38.264 41.253,61.186 C -5.089,-51.196 0,-25.987 0,0"
		 style="fill:#ffffff;fill-opacity:1;fill-rule:evenodd;stroke:none"
		 id="path31" /></g><g
	       id="g33"
	       transform="translate(402.2031,507.0522)"><path
		 d="m 0,0 c -25.809,25.809 -60.123,40.023 -96.622,40.023 -36.499,0 -70.814,-14.214 -96.622,-40.023 -25.809,-25.81 -40.023,-60.125 -40.023,-96.625 0,-36.499 14.214,-70.813 40.023,-96.622 25.808,-25.808 60.123,-40.022 96.622,-40.022 36.499,0 70.813,14.214 96.622,40.022 25.81,25.809 40.023,60.123 40.023,96.622 C 40.023,-60.125 25.81,-25.81 0,0"
		 style="fill:#ed1c24;fill-opacity:1;fill-rule:evenodd;stroke:none"
		 id="path35" /></g></g></g><g
	   id="g37"><g
	     id="g39"
	     clip-path="url(#clipPath43)"><g
	       id="g45"
	       transform="translate(305.5811,552.0752)"><path
		 d="m 0,0 c -78.228,0 -141.645,-63.417 -141.645,-141.647 0,-78.228 63.417,-141.645 141.645,-141.645 78.228,0 141.646,63.417 141.646,141.645 C 141.646,-63.417 78.228,0 0,0 m 0,-5.93 c 36.251,0 70.332,-14.116 95.966,-39.75 25.633,-25.634 39.75,-59.716 39.75,-95.967 0,-36.25 -14.117,-70.332 -39.75,-95.965 -25.634,-25.633 -59.715,-39.75 -95.966,-39.75 -36.251,0 -70.331,14.117 -95.965,39.75 -25.634,25.633 -39.75,59.714 -39.75,95.965 0,36.251 14.116,70.333 39.75,95.967 25.634,25.634 59.714,39.75 95.965,39.75"
		 style="fill:#231f20;fill-opacity:1;fill-rule:nonzero;stroke:none"
		 id="path47" /></g><g
	       id="g49"
	       transform="translate(316.9941,413.3574)"><path
		 d="m 0,0 c -3.485,-21.824 0.017,-44.954 -12.023,-60.132 -16.942,-6.827 -27.043,4.598 -31.57,15.032 0.66,22.383 1.514,44.587 3.004,66.145 0.265,7.25 8.992,6.043 6.015,16.538 -18.49,-13.08 -8.269,-54.87 -13.533,-81.179 -5.481,-8.826 -27.218,-7.564 -33.071,0 -6.59,16.383 2.221,38.376 4.51,58.631 1.534,13.556 -0.181,26.012 3.006,36.077 7.401,23.39 21.63,24.231 41.867,15.731 C -26.894,39.67 -12.305,19.767 0,0 m 2.67,-4.169 c 0,0 0.863,24.193 3.613,32.64 1.886,5.803 4.421,3.835 4.692,2.967 C 12.305,22.743 8.846,27.436 7.859,16.194 7.114,10.363 7.382,-5.253 7.465,-9.277 16.509,-20.418 23.098,-37.842 21.047,-54.119 -5.609,-58.227 3.928,-25.465 2.67,-4.169 m -76.332,-67.99 c -4.828,-1.191 -9.645,4.493 -16.068,8.445 -4.729,2.739 -9.884,0.991 -13.999,6.587 -4.687,12.158 -1.412,26.953 -3.005,39.09 -0.804,6.109 -3.762,12.835 -3.029,18.016 2.167,15.298 18.304,19.181 24.075,30.088 2.429,0.423 3.309,0.785 4.51,-1.506 -1.459,-23.615 -13.756,-50.666 -4.51,-75.163 3.162,-6.859 14.728,-5.315 18.041,-12.025 1.085,-7.601 -2.203,-10.834 -6.015,-13.532 M 50.092,20.549 c 0,0 -0.347,-4.969 -0.797,-7.802 C 48.824,9.78 48.237,5.904 47.799,2.466 c -2.07,-16.22 0.084,-35.93 -2.295,-40.128 -2.563,-0.126 -3.807,5.312 -3.807,5.312 0,0 4.21,40.622 4.195,49.162 -2.701,7.011 -3.066,11.725 4.2,3.737 m 77.84,-9.893 c -8.104,72.956 -64.262,127.435 -144.468,124.642 -30.073,-1.048 -48.085,-6.46 -66.032,-18.653 -36.921,-25.097 -70.167,-66.487 -69.174,-122.05 1.329,-74.231 60.967,-130.162 123.778,-136.624 16.609,-1.711 33.839,-0.209 50.534,4.192 -2.007,-0.458 -4.028,-0.872 -6.061,-1.231 -14.8,-2.614 -36.567,-2.715 -51.392,1.236 3.459,0.495 10.013,-2.018 31.992,9.515 22.607,11.859 32.216,34.037 31.456,68.185 2.459,7.062 8.812,10.226 12.027,16.536 35.949,-20.258 36.34,14.787 40.589,55.623 1.072,10.296 6.615,19.676 6.014,27.06 C 86.315,49.763 75.801,61.547 69.133,60.314 48.625,55.726 50.469,70.402 34.048,74.007 26.783,74.757 20.974,67.892 14.281,68.078 6.061,72.38 5.146,81.623 -5.11,83.889 c -10.318,2.3 -16.058,-8.544 -24.831,-7.782 1.852,31.13 28.535,49.677 55.96,51.655 64.482,-17.049 91.625,-64.148 98.756,-109.722 8.825,-56.347 -16.07,-106.322 -55.39,-134.589 38.273,26.011 64.875,70.213 58.547,127.205 M 69.385,-116.549 c -14.338,-9.742 -30.314,-16.936 -46.815,-21.288 16.866,3.853 32.758,11.187 46.815,21.288"
		 style="fill:#231f20;fill-opacity:1;fill-rule:nonzero;stroke:none"
		 id="path51" /></g></g></g><g
	   id="g53"><g
	     id="g55"
	     clip-path="url(#clipPath59)"><g
	       id="g61"
	       transform="translate(305.5811,617.3765)"><path
		 d="m 0,0 c -114.293,0 -206.948,-92.653 -206.948,-206.949 0,-114.293 92.655,-206.947 206.948,-206.947 114.295,0 206.948,92.654 206.948,206.947 C 206.948,-92.653 114.295,0 0,0 m 0,-5.953 c 27.137,0 53.459,-5.314 78.234,-15.793 23.935,-10.123 45.43,-24.616 63.891,-43.077 18.461,-18.461 32.954,-39.957 43.077,-63.891 10.48,-24.776 15.793,-51.098 15.793,-78.235 0,-27.136 -5.313,-53.458 -15.793,-78.233 -10.123,-23.934 -24.616,-45.43 -43.077,-63.891 -18.461,-18.461 -39.956,-32.954 -63.891,-43.077 C 53.459,-402.629 27.137,-407.943 0,-407.943 c -27.137,0 -53.458,5.314 -78.234,15.793 -23.934,10.123 -45.429,24.616 -63.89,43.077 -18.462,18.461 -32.955,39.957 -43.078,63.891 -10.48,24.775 -15.793,51.097 -15.793,78.233 0,27.137 5.313,53.459 15.793,78.235 10.123,23.934 24.616,45.43 43.078,63.891 18.461,18.461 39.956,32.954 63.89,43.077 24.776,10.479 51.097,15.793 78.234,15.793"
		 style="fill:#231f20;fill-opacity:1;fill-rule:nonzero;stroke:none"
		 id="path63" /></g><g
	       id="g65"
	       transform="translate(305.5811,552.0752)"><path
		 d="m 0,0 c -78.228,0 -141.645,-63.417 -141.645,-141.647 0,-78.228 63.417,-141.645 141.645,-141.645 78.228,0 141.646,63.417 141.646,141.645 C 141.646,-63.417 78.228,0 0,0 m 0,-5.93 c 36.251,0 70.332,-14.116 95.966,-39.75 25.633,-25.634 39.75,-59.716 39.75,-95.967 0,-36.25 -14.117,-70.332 -39.75,-95.965 -25.634,-25.633 -59.715,-39.75 -95.966,-39.75 -36.251,0 -70.331,14.117 -95.965,39.75 -25.634,25.633 -39.75,59.714 -39.75,95.965 0,36.251 14.116,70.333 39.75,95.967 25.634,25.634 59.714,39.75 95.965,39.75"
		 style="fill:#231f20;fill-opacity:1;fill-rule:nonzero;stroke:none"
		 id="path67" /></g><g
	       id="g69"
	       transform="translate(305.5811,605.1719)"><path
		 d="m 0,0 c -107.555,0 -194.743,-87.188 -194.743,-194.744 0,-107.554 87.188,-194.744 194.743,-194.744 107.557,0 194.743,87.19 194.743,194.744 C 194.743,-87.188 107.557,0 0,0 m 0,-3.018 c 25.885,0 50.993,-5.069 74.628,-15.065 22.831,-9.657 43.335,-23.481 60.943,-41.09 17.609,-17.608 31.433,-38.113 41.089,-60.943 9.996,-23.635 15.066,-48.743 15.066,-74.628 0,-25.884 -5.07,-50.992 -15.066,-74.627 -9.656,-22.831 -23.48,-43.335 -41.089,-60.943 -17.608,-17.61 -38.113,-31.434 -60.943,-41.09 -23.635,-9.997 -48.743,-15.067 -74.628,-15.067 -25.884,0 -50.992,5.07 -74.628,15.067 -22.83,9.656 -43.334,23.48 -60.942,41.09 -17.609,17.608 -31.434,38.112 -41.09,60.943 -9.996,23.635 -15.066,48.743 -15.066,74.627 0,25.885 5.07,50.993 15.066,74.628 9.656,22.83 23.481,43.335 41.09,60.943 17.608,17.609 38.112,31.433 60.942,41.09 23.635,9.996 48.744,15.065 74.628,15.065"
		 style="fill:#231f20;fill-opacity:1;fill-rule:nonzero;stroke:none"
		 id="path71" /></g></g></g><g
	   id="g73"><g
	     id="g75"
	     clip-path="url(#clipPath79)"><g
	       id="g81"
	       transform="translate(170.4541,321.5283)"><path
		 d="m 0,0 c -6.256,-3.625 -12.198,-7.729 -18.133,-11.765 -0.355,0.686 -0.748,1.342 -1.186,1.903 -0.467,0.598 -0.98,1.1 -1.56,1.61 C -11.057,-3.104 -1.498,2.38 7.914,8.051 8.211,7.44 8.516,6.896 8.925,6.373 9.305,5.888 9.788,5.423 10.279,5.024 6.47,-2.348 2.301,-10.723 -0.836,-17.568 c 7.875,1.399 16.622,3.299 24.667,5.255 0.297,-0.612 0.66,-1.23 1.069,-1.753 0.409,-0.524 0.893,-0.989 1.413,-1.425 -7.835,-7.69 -18.734,-18.314 -23.272,-23.364 -0.677,1.096 -1.391,2.164 -2.179,3.172 -0.789,1.009 -1.681,1.997 -2.611,2.954 4.99,4.322 10.846,9.922 16.171,15.046 l -0.059,0.076 c -7.982,-1.725 -15.898,-3.457 -23.793,-5.292 -0.138,0.253 -0.305,0.544 -0.48,0.768 -0.175,0.224 -0.417,0.456 -0.63,0.651 3.569,7.063 7.146,14.193 10.599,21.405 z"
		 style="fill:#231f20;fill-opacity:1;fill-rule:nonzero;stroke:none"
		 id="path83" /></g><g
	       id="g85"
	       transform="translate(200.0918,276.8105)"><path
		 d="M 0,0 C 1.361,3.847 2.699,7.59 3.86,11.416 0.273,9.567 -3.233,7.593 -6.728,5.484 Z m 1.829,-17.646 c -1.116,1.033 -2.056,1.982 -3.085,2.822 -1.029,0.839 -2.185,1.597 -3.274,2.363 1.265,3.129 2.488,6.355 3.607,9.604 -1.551,1.325 -3.064,2.621 -4.645,3.91 -1.286,1.049 -2.567,2.03 -3.883,3.042 -3.03,-1.691 -5.877,-3.531 -8.643,-5.498 -0.528,0.553 -0.99,1.113 -1.578,1.592 -0.588,0.48 -1.229,0.819 -1.987,1.315 5.127,2.612 21.309,11.203 31.304,17.009 0.418,-0.463 0.768,-0.934 1.247,-1.324 0.477,-0.388 1.008,-0.638 1.546,-0.957 C 8.729,5.305 3.92,-9.376 1.829,-17.646"
		 style="fill:#231f20;fill-opacity:1;fill-rule:nonzero;stroke:none"
		 id="path87" /></g><g
	       id="g89"
	       transform="translate(229.6572,277.8643)"><path
		 d="m 0,0 c -2.155,-3.741 -4.246,-7.464 -6.317,-11.25 0.309,-0.224 0.578,-0.425 0.869,-0.584 3.662,-2.004 6.775,-1.058 8.915,2.854 C 6.153,-4.07 4.535,-2.481 0,0 m -6.922,-13.244 -0.375,0.205 -0.933,-1.706 c -2.55,-4.661 -4.219,-7.91 -5.973,-11.709 -0.87,0.584 -1.926,1.324 -3.299,2.075 -1.373,0.751 -2.564,1.241 -3.525,1.659 2.253,3.525 4.089,6.684 6.638,11.344 l 3.097,5.659 c 2.55,4.66 4.22,7.91 5.974,11.711 C -4.449,5.41 -3.394,4.671 -2.021,3.92 -0.522,3.1 1.381,2.329 4.21,0.778 c 4.203,-2.299 5.537,-3.516 6.425,-5.353 1.004,-2.117 1.043,-4.518 -0.301,-6.973 -2.208,-4.036 -5.95,-5.341 -10.639,-4.128 0.091,-6.159 0.659,-12.633 1.123,-18.997 -1.203,0.767 -2.382,1.574 -3.631,2.258 -1.249,0.683 -2.607,1.264 -3.901,1.863 z"
		 style="fill:#231f20;fill-opacity:1;fill-rule:nonzero;stroke:none"
		 id="path91" /></g><g
	       id="g93"
	       transform="translate(254.4873,261.1133)"><path
		 d="m 0,0 c 0.546,1.717 1.064,3.345 1.13,4.021 -1.763,0.56 -5.646,1.498 -8.458,2.047 0.351,0.635 0.643,1.239 0.859,1.916 0.216,0.679 0.327,1.34 0.407,2.062 C -1.992,8.601 0.013,7.862 5.617,6.078 11.222,4.294 13.284,3.737 17.169,2.649 16.817,2.015 16.526,1.411 16.311,0.732 16.095,0.055 15.983,-0.606 15.903,-1.33 13.563,-0.236 9.854,1.243 8.045,1.818 7.754,1.215 7.235,-0.412 6.688,-2.13 L 3.092,-13.429 C 1.479,-18.491 0.462,-22 -0.533,-26.063 c -0.965,0.407 -2.143,0.93 -3.634,1.406 -1.491,0.474 -2.755,0.727 -3.778,0.953 1.538,3.891 2.736,7.343 4.347,12.404 z"
		 style="fill:#231f20;fill-opacity:1;fill-rule:nonzero;stroke:none"
		 id="path95" /></g><g
	       id="g97"
	       transform="translate(275.4463,250.0234)"><path
		 d="M 0,0 C 0.863,5.242 1.363,8.86 1.76,13.026 2.774,12.764 4.015,12.415 5.56,12.161 7.104,11.906 8.391,11.839 9.436,11.762 8.477,7.689 7.789,4.102 6.927,-1.141 L 5.878,-7.505 c -0.862,-5.241 -1.362,-8.86 -1.76,-13.024 -1.014,0.262 -2.255,0.611 -3.799,0.865 -1.544,0.255 -2.831,0.322 -3.876,0.398 0.959,4.072 1.646,7.661 2.509,12.902 z"
		 style="fill:#231f20;fill-opacity:1;fill-rule:nonzero;stroke:none"
		 id="path99" /></g><g
	       id="g101"
	       transform="translate(306.3242,240.1875)"><path
		 d="M 0,0 C -1.313,3.863 -2.581,7.631 -4.04,11.354 -5.712,7.682 -7.242,3.958 -8.679,0.14 Z m 12.365,-12.723 c -1.515,0.119 -2.841,0.284 -4.169,0.305 -1.328,0.021 -2.706,-0.1 -4.035,-0.173 -0.944,3.241 -1.982,6.531 -3.116,9.775 -2.038,0.08 -4.029,0.159 -6.068,0.192 -1.661,0.026 -3.274,0.005 -4.934,-0.015 -1.332,-3.204 -2.428,-6.413 -3.381,-9.671 -0.758,0.108 -1.467,0.262 -2.225,0.274 -0.759,0.012 -1.473,-0.118 -2.375,-0.199 2.408,5.226 9.793,21.995 14.045,32.74 0.616,-0.105 1.182,-0.256 1.799,-0.266 0.616,-0.01 1.188,0.123 1.806,0.21 C 3.569,9.571 8.886,-4.935 12.365,-12.723"
		 style="fill:#231f20;fill-opacity:1;fill-rule:nonzero;stroke:none"
		 id="path103" /></g><g
	       id="g105"
	       transform="translate(324.5449,248.1982)"><path
		 d="m 0,0 c -0.857,5.243 -1.541,8.832 -2.496,12.907 1.045,0.075 2.332,0.142 3.877,0.395 1.545,0.252 2.786,0.599 3.801,0.86 C 5.574,9.996 6.07,6.376 6.929,1.133 l 1.042,-6.366 c 0.566,-3.464 1.195,-7.015 1.64,-9.442 3.511,0.575 7.085,1.352 10.621,2.363 0.014,-0.67 -0.003,-1.154 0.158,-2.137 0.161,-0.984 0.331,-1.436 0.516,-1.983 -1.693,-0.228 -3.924,-0.401 -8.23,-1.106 -7.631,-1.248 -8.872,-1.596 -9.887,-1.858 -0.393,4.166 -0.89,7.786 -1.747,13.029 z"
		 style="fill:#231f20;fill-opacity:1;fill-rule:nonzero;stroke:none"
		 id="path107" /></g><g
	       id="g109"
	       transform="translate(378.4043,256.5176)"><path
		 d="m 0,0 c -2.844,2.927 -5.604,5.786 -8.519,8.524 0.065,-4.035 0.28,-8.054 0.62,-12.121 z M 16.628,-6.188 C 15.207,-6.73 13.939,-7.151 12.731,-7.701 11.522,-8.252 10.329,-8.951 9.16,-9.588 6.917,-7.065 4.568,-4.539 2.152,-2.094 0.277,-2.896 -1.556,-3.678 -3.412,-4.522 c -1.511,-0.689 -2.959,-1.4 -4.45,-2.132 0.171,-3.466 0.557,-6.834 1.093,-10.186 -0.729,-0.228 -1.436,-0.393 -2.127,-0.708 -0.69,-0.314 -1.279,-0.739 -2.06,-1.198 -0.065,5.754 -0.587,24.069 -1.357,35.606 0.601,0.169 1.178,0.276 1.74,0.532 0.56,0.254 1.02,0.62 1.542,0.958 8.15,-8.172 19.175,-18.996 25.659,-24.538"
		 style="fill:#231f20;fill-opacity:1;fill-rule:nonzero;stroke:none"
		 id="path111" /></g><g
	       id="g113"
	       transform="translate(391.3086,284.0049)"><path
		 d="m 0,0 c 2.421,-3.576 4.853,-7.087 7.351,-10.608 0.337,0.181 0.635,0.335 0.906,0.527 3.405,2.415 3.918,5.629 1.338,9.267 C 6.355,3.752 4.218,2.992 0,0 m 8.88,-12.024 -0.349,-0.247 1.125,-1.587 c 3.075,-4.334 5.266,-7.259 7.914,-10.499 -0.906,-0.527 -2.033,-1.153 -3.31,-2.058 -1.278,-0.906 -2.239,-1.764 -3.036,-2.444 -2.184,3.569 -4.22,6.604 -7.294,10.938 l -3.734,5.263 c -3.074,4.334 -5.265,7.259 -7.913,10.501 0.906,0.526 2.033,1.151 3.31,2.057 1.393,0.989 2.92,2.363 5.552,4.227 3.908,2.772 5.586,3.439 7.627,3.434 2.344,-0.025 4.519,-1.041 6.139,-3.325 2.662,-3.753 2.197,-7.689 -0.947,-11.375 5.578,-2.615 11.648,-4.94 17.575,-7.309 -1.216,-0.746 -2.459,-1.453 -3.619,-2.278 -1.161,-0.823 -2.278,-1.79 -3.385,-2.691 z"
		 style="fill:#231f20;fill-opacity:1;fill-rule:nonzero;stroke:none"
		 id="path115" /></g><g
	       id="g117"
	       transform="translate(415.9258,297.6621)"><path
		 d="m 0,0 c -1.288,1.262 -2.508,2.456 -3.082,2.819 -1.294,-1.322 -3.879,-4.367 -5.633,-6.633 -0.409,0.599 -0.817,1.131 -1.325,1.629 -0.509,0.498 -1.049,0.895 -1.657,1.291 3.122,2.985 4.682,4.444 8.798,8.646 4.116,4.202 5.541,5.793 8.26,8.773 0.41,-0.599 0.817,-1.131 1.326,-1.629 C 7.195,14.397 7.735,14.001 8.344,13.605 6.314,12.008 3.323,9.36 1.996,8.004 2.403,7.472 3.624,6.277 4.911,5.016 l 8.473,-8.297 c 3.796,-3.717 6.471,-6.204 9.653,-8.922 -0.798,-0.679 -1.796,-1.494 -2.891,-2.613 -1.095,-1.119 -1.889,-2.133 -2.552,-2.945 -2.783,3.124 -5.326,5.747 -9.121,9.464 z"
		 style="fill:#231f20;fill-opacity:1;fill-rule:nonzero;stroke:none"
		 id="path119" /></g><g
	       id="g121"
	       transform="translate(437.7598,326.5244)"><path
		 d="m 0,0 c -2.789,0.726 -4.975,-0.009 -6.625,-2.386 -1.651,-2.376 -1.18,-5.187 0.69,-6.487 5.766,-4.006 12.553,8.838 21.397,2.693 5.22,-3.627 5.934,-10.247 1.63,-16.441 -1.948,-2.805 -4.391,-4.573 -6.033,-5.108 -1.44,1.752 -2.599,3.077 -4.163,4.568 l 0.515,0.74 c 2.557,-1.142 5.75,-0.703 7.943,2.452 2.111,3.039 1.375,5.803 -0.807,7.32 -5.882,4.086 -12.391,-8.605 -21.234,-2.46 -5.376,3.735 -5.466,9.921 -2.246,14.557 1.95,2.806 4.152,4.395 6.349,5.063 0.883,-1.307 1.628,-2.229 2.99,-3.926 z"
		 style="fill:#231f20;fill-opacity:1;fill-rule:nonzero;stroke:none"
		 id="path123" /></g><g
	       id="g125"
	       transform="translate(151.8779,439.7056)"><path
		 d="m 0,0 c 1.271,-0.648 2.604,-1.159 3.912,-1.429 1.078,-2.631 1.517,-5.962 1.14,-9.833 -1.066,-10.953 -8.54,-16.755 -17.463,-15.887 -13.03,1.268 -17.176,10.583 -16.211,20.498 0.321,3.304 1.717,7.362 3.25,9.405 1.498,-0.765 3.118,-1.256 4.71,-1.554 l -0.065,-0.661 c -3.156,-2.076 -4.665,-4.359 -4.991,-7.711 -0.492,-5.052 3.343,-11.192 13.352,-12.165 9.725,-0.946 14.11,4.441 14.637,9.871 0.294,3.021 -0.782,6.653 -2.709,8.889 z"
		 style="fill:#231f20;fill-opacity:1;fill-rule:nonzero;stroke:none"
		 id="path127" /></g><g
	       id="g129"
	       transform="translate(140.2813,450.6396)"><path
		 d="m 0,0 c -5.098,1.497 -8.629,2.436 -12.715,3.339 0.834,2.672 1.819,5.35 2.607,8.036 1.31,4.461 2.341,8.312 2.566,9.581 0.52,-0.252 1.039,-0.503 1.858,-0.744 0.956,-0.281 1.392,-0.31 2.102,-0.421 C -4.825,16.398 -6.748,11.03 -7.149,9.665 -3.893,8.461 -0.616,7.499 2.707,6.523 3.778,10.51 4.543,13.449 5.377,16.964 6.37,16.475 6.767,16.309 7.358,16.135 7.859,15.988 8.296,15.958 9.291,15.813 8.003,12.434 6.863,9.06 5.848,5.601 7.76,5.039 9.703,4.419 11.66,3.844 13.572,3.283 15.543,2.753 17.39,2.31 c 1.003,3.414 1.85,6.972 2.469,10.599 0.611,-0.279 1.039,-0.503 1.995,-0.784 0.956,-0.281 1.438,-0.323 2.011,-0.393 -0.527,-1.625 -1.337,-3.711 -2.567,-7.899 -2.179,-7.42 -2.403,-8.689 -2.606,-9.717 -3.925,1.449 -7.404,2.57 -12.502,4.067 z"
		 style="fill:#231f20;fill-opacity:1;fill-rule:nonzero;stroke:none"
		 id="path131" /></g><g
	       id="g133"
	       transform="translate(137.4912,484.314)"><path
		 d="m 0,0 c 0.462,0.561 0.881,1.143 1.217,1.771 0.336,0.627 0.588,1.299 0.798,1.993 9.874,2.464 19.683,4.908 29.624,7.497 -6.651,3.559 -18.027,9.648 -20.066,10.364 0.461,0.56 0.881,1.143 1.217,1.77 0.335,0.627 0.588,1.299 0.798,1.992 C 25.4,18.204 30.963,15.227 42.089,9.274 41.649,8.756 41.275,8.257 40.962,7.671 40.648,7.086 40.441,6.497 40.298,5.927 30.455,3.823 20.412,1.343 10.189,-1.472 c 3.092,-1.762 6.564,-3.62 9.701,-5.299 6.691,-3.581 9.1,-4.709 10.715,-5.412 -0.483,-0.602 -0.925,-1.226 -1.261,-1.854 -0.336,-0.627 -0.611,-1.341 -0.821,-2.036 -1.1,0.859 -11.555,7.261 -20.087,11.827 C 4.671,-2.231 2.03,-1.033 0,0"
		 style="fill:#231f20;fill-opacity:1;fill-rule:nonzero;stroke:none"
		 id="path135" /></g><g
	       id="g137"
	       transform="translate(167.7705,518.8359)"><path
		 d="m 0,0 c -1.395,1.142 -2.716,2.225 -3.319,2.535 -1.173,-1.431 -3.478,-4.694 -5.025,-7.106 -0.46,0.56 -0.913,1.055 -1.464,1.506 -0.55,0.451 -1.124,0.798 -1.764,1.139 2.844,3.249 4.271,4.84 7.999,9.389 3.726,4.551 5.006,6.262 7.451,9.471 0.46,-0.561 0.914,-1.056 1.465,-1.506 0.55,-0.451 1.124,-0.799 1.764,-1.137 C 5.228,12.52 2.482,9.618 1.279,8.15 1.733,7.656 3.055,6.573 4.449,5.431 l 9.174,-7.515 c 4.11,-3.367 6.996,-5.608 10.405,-8.035 -0.734,-0.747 -1.656,-1.647 -2.648,-2.858 -0.991,-1.211 -1.693,-2.292 -2.281,-3.158 -3.049,2.865 -5.815,5.253 -9.925,8.62 z"
		 style="fill:#231f20;fill-opacity:1;fill-rule:nonzero;stroke:none"
		 id="path139" /></g><g
	       id="g141"
	       transform="translate(185.7939,545.2549)"><path
		 d="m 0,0 c 2.74,-3.336 5.485,-6.605 8.297,-9.879 0.318,0.211 0.601,0.391 0.853,0.608 3.166,2.719 3.379,5.965 0.475,9.347 C 5.979,4.322 3.922,3.368 0,0 m 9.949,-11.148 -0.324,-0.278 1.268,-1.475 c 3.46,-4.03 5.911,-6.739 8.846,-9.72 -0.853,-0.608 -1.918,-1.334 -3.104,-2.354 -1.188,-1.019 -2.067,-1.962 -2.796,-2.713 -2.504,3.352 -4.811,6.184 -8.272,10.213 l -4.202,4.894 c -3.461,4.03 -5.912,6.738 -8.846,9.72 0.852,0.607 1.917,1.334 3.104,2.353 1.295,1.112 2.688,2.621 5.135,4.722 3.634,3.121 5.243,3.94 7.274,4.122 2.336,0.193 4.595,-0.618 6.418,-2.741 2.997,-3.49 2.898,-7.451 0.109,-11.409 5.794,-2.089 12.051,-3.842 18.169,-5.652 -1.141,-0.855 -2.313,-1.675 -3.393,-2.601 -1.079,-0.927 -2.102,-1.993 -3.119,-2.992 z"
		 style="fill:#231f20;fill-opacity:1;fill-rule:nonzero;stroke:none"
		 id="path143" /></g><g
	       id="g145"
	       transform="translate(229.1172,554.2407)"><path
		 d="m 0,0 c -3.063,2.696 -6.04,5.332 -9.159,7.834 0.38,-4.018 0.908,-8.009 1.564,-12.037 z m 17.062,-4.872 c -1.374,-0.651 -2.606,-1.17 -3.768,-1.813 -1.162,-0.643 -2.296,-1.433 -3.412,-2.159 -2.434,2.34 -4.973,4.676 -7.572,6.923 -1.808,-0.946 -3.574,-1.87 -5.359,-2.857 -1.452,-0.804 -2.841,-1.626 -4.27,-2.47 0.441,-3.442 1.09,-6.77 1.885,-10.07 -0.71,-0.285 -1.401,-0.505 -2.065,-0.872 -0.664,-0.367 -1.218,-0.836 -1.96,-1.356 -0.516,5.733 -2.466,23.953 -4.132,35.387 0.585,0.216 1.153,0.367 1.692,0.666 0.54,0.298 0.968,0.698 1.462,1.083 8.764,-7.511 20.601,-17.442 27.499,-22.462"
		 style="fill:#231f20;fill-opacity:1;fill-rule:nonzero;stroke:none"
		 id="path147" /></g><g
	       id="g149"
	       transform="translate(245.418,569.5391)"><path
		 d="m 0,0 c -1.652,5.048 -2.879,8.49 -4.447,12.363 1.02,0.234 2.282,0.497 3.769,0.985 1.488,0.486 2.66,1.02 3.622,1.44 C 3.973,10.732 5.019,7.232 6.671,2.184 l 2.007,-6.13 c 1.092,-3.336 2.259,-6.747 3.071,-9.076 3.38,1.107 6.792,2.423 10.13,3.964 0.116,-0.66 0.174,-1.14 0.483,-2.087 0.311,-0.946 0.548,-1.367 0.816,-1.878 -1.638,-0.487 -3.816,-1 -7.962,-2.357 -7.348,-2.406 -8.521,-2.939 -9.483,-3.354 -1.027,4.055 -2.074,7.555 -3.726,12.604 z"
		 style="fill:#231f20;fill-opacity:1;fill-rule:nonzero;stroke:none"
		 id="path151" /></g><g
	       id="g153"
	       transform="translate(293.0098,582.4771)"><path
		 d="m 0,0 c -1.111,-7.145 -1.654,-14.347 -2.243,-21.5 -0.757,0.154 -1.514,0.261 -2.226,0.273 -0.759,0.012 -1.471,-0.071 -2.232,-0.201 2.167,10.875 3.907,21.758 5.411,32.642 0.661,-0.153 1.276,-0.258 1.94,-0.269 0.617,-0.009 1.283,0.075 1.901,0.209 3.341,-7.596 7.236,-16.103 10.591,-22.845 3.86,7.006 7.879,15.005 11.414,22.489 0.662,-0.153 1.372,-0.259 2.036,-0.27 0.663,-0.01 1.329,0.074 1.995,0.207 1.058,-10.927 2.475,-26.082 3.552,-32.788 -1.278,0.163 -2.557,0.278 -3.837,0.299 -1.281,0.02 -2.611,-0.053 -3.941,-0.174 -0.225,6.597 -0.902,14.672 -1.543,22.035 l -0.094,0.002 c -3.675,-7.294 -7.302,-14.541 -10.835,-21.837 -0.284,0.053 -0.615,0.105 -0.9,0.11 -0.284,0.004 -0.617,-0.038 -0.902,-0.08 -3.252,7.215 -6.551,14.478 -9.992,21.697 z"
		 style="fill:#231f20;fill-opacity:1;fill-rule:nonzero;stroke:none"
		 id="path155" /></g><g
	       id="g157"
	       transform="translate(347.9502,567.7085)"><path
		 d="M 0,0 C -0.396,4.062 -0.77,8.021 -1.338,11.98 -3.806,8.785 -6.146,5.51 -8.419,2.119 Z m 9.134,-15.214 c -1.449,0.462 -2.702,0.924 -3.99,1.249 -1.289,0.324 -2.658,0.522 -3.969,0.754 -0.179,3.372 -0.438,6.812 -0.8,10.231 -1.967,0.543 -3.888,1.076 -5.865,1.574 -1.611,0.405 -3.187,0.753 -4.809,1.112 -2.029,-2.815 -3.829,-5.689 -5.502,-8.644 -0.713,0.278 -1.368,0.59 -2.104,0.775 -0.737,0.185 -1.461,0.221 -2.359,0.349 3.54,4.539 14.564,19.18 21.161,28.674 0.575,-0.243 1.092,-0.52 1.69,-0.671 0.599,-0.15 1.185,-0.151 1.807,-0.21 1.269,-11.474 3.131,-26.814 4.74,-35.193"
		 style="fill:#231f20;fill-opacity:1;fill-rule:nonzero;stroke:none"
		 id="path159" /></g><g
	       id="g161"
	       transform="translate(380.5781,574.4956)"><path
		 d="m 0,0 c -1.95,-3.853 -3.837,-7.683 -5.702,-11.576 0.322,-0.207 0.6,-0.393 0.9,-0.537 3.765,-1.803 6.823,-0.69 8.749,3.332 C 6.365,-3.732 4.664,-2.234 0,0 m -6.198,-13.601 -0.385,0.185 -0.841,-1.754 c -2.295,-4.792 -3.787,-8.128 -5.334,-12.016 -0.9,0.537 -1.994,1.218 -3.406,1.894 -1.411,0.677 -2.628,1.102 -3.61,1.467 2.059,3.642 3.723,6.896 6.018,11.688 l 2.787,5.819 C -8.674,-1.526 -7.182,1.809 -5.635,5.7 -4.734,5.163 -3.641,4.481 -2.229,3.805 -0.688,3.068 1.254,2.4 4.163,1.004 c 4.321,-2.069 5.72,-3.212 6.705,-5 1.117,-2.06 1.285,-4.455 0.076,-6.979 -1.987,-4.15 -5.654,-5.656 -10.402,-4.696 0.423,-6.147 1.338,-12.582 2.146,-18.912 -1.243,0.7 -2.465,1.443 -3.749,2.058 -1.283,0.614 -2.67,1.121 -3.996,1.65 z"
		 style="fill:#231f20;fill-opacity:1;fill-rule:nonzero;stroke:none"
		 id="path163" /></g><g
	       id="g165"
	       transform="translate(406.1406,546.0396)"><path
		 d="M 0,0 C 4.187,1.423 9.724,4.796 14.138,7.347 14.659,6.853 15.152,6.321 15.768,5.877 16.383,5.433 17.043,5.131 17.752,4.732 13.978,3.07 5.039,-1.124 -0.921,-4.191 -1.81,-5.422 -2.803,-6.635 -3.72,-7.904 c -1.832,-2.538 -3.682,-5.18 -5.419,-8.314 -1.021,0.854 -2.052,1.775 -3.13,2.552 -1.076,0.778 -2.275,1.468 -3.407,2.169 1.893,2.377 4.1,4.704 5.822,7.088 0.86,1.192 1.683,2.411 2.505,3.631 1.04,7.03 2.6,18.425 2.991,21.483 1.098,-0.911 2.169,-1.859 3.322,-2.692 C 0.117,17.18 1.315,16.49 2.524,15.729 1.544,10.645 0.124,2.602 -0.077,0.056 Z"
		 style="fill:#231f20;fill-opacity:1;fill-rule:nonzero;stroke:none"
		 id="path167" /></g><g
	       id="g169"
	       transform="translate(421.9248,534.4707)"><path
		 d="M 0,0 C 3.805,3.708 6.354,6.326 9.145,9.443 9.805,8.63 10.597,7.613 11.689,6.492 12.782,5.371 13.778,4.553 14.574,3.874 11.387,1.164 8.705,-1.318 4.901,-5.027 L 0.281,-9.53 c -2.513,-2.45 -5.061,-5.001 -6.795,-6.757 2.484,-2.547 5.169,-5.03 8.025,-7.35 -0.542,-0.396 -0.948,-0.659 -1.661,-1.354 -0.713,-0.696 -0.987,-1.094 -1.329,-1.56 -1.158,1.256 -2.578,2.986 -5.624,6.111 -5.397,5.537 -6.393,6.355 -7.19,7.037 3.189,2.71 5.87,5.192 9.674,8.9 z"
		 style="fill:#231f20;fill-opacity:1;fill-rule:nonzero;stroke:none"
		 id="path171" /></g><g
	       id="g173"
	       transform="translate(442.8047,498.1499)"><path
		 d="M 0,0 C 2.442,3.27 4.831,6.448 7.076,9.758 3.102,9.057 -0.835,8.212 -4.798,7.235 Z m -3.491,-17.399 c -0.76,1.317 -1.375,2.503 -2.109,3.61 -0.734,1.107 -1.613,2.175 -2.425,3.231 2.137,2.613 4.262,5.331 6.296,8.101 -1.088,1.727 -2.15,3.414 -3.277,5.113 -0.918,1.384 -1.848,2.702 -2.806,4.06 -3.396,-0.715 -6.661,-1.628 -9.887,-2.685 -0.34,0.684 -0.615,1.356 -1.034,1.989 -0.42,0.632 -0.932,1.147 -1.509,1.846 5.673,0.972 23.68,4.374 34.948,6.95 0.262,-0.566 0.458,-1.119 0.799,-1.633 0.341,-0.514 0.774,-0.91 1.194,-1.37 C 9.913,2.475 0.961,-10.12 -3.491,-17.399"
		 style="fill:#231f20;fill-opacity:1;fill-rule:nonzero;stroke:none"
		 id="path175" /></g><g
	       id="g177"
	       transform="translate(472.3652,487.2217)"><path
		 d="m 0,0 c 0.114,-0.717 0.272,-1.417 0.521,-2.084 0.247,-0.667 0.583,-1.301 0.964,-1.919 -4.697,-9.028 -9.366,-17.995 -14.013,-27.156 7.072,2.623 19.171,7.109 21.056,8.164 0.114,-0.717 0.273,-1.417 0.52,-2.084 0.247,-0.667 0.584,-1.301 0.965,-1.92 -13.207,-4.088 -19.123,-6.282 -30.955,-10.668 -0.097,0.671 -0.223,1.283 -0.454,1.905 -0.231,0.623 -0.535,1.168 -0.866,1.651 4.947,8.766 9.743,17.932 14.409,27.454 -3.369,-1.148 -7.06,-2.517 -10.396,-3.754 -7.117,-2.639 -9.559,-3.696 -11.154,-4.44 -0.131,0.761 -0.306,1.506 -0.554,2.173 -0.247,0.667 -0.6,1.346 -0.981,1.964 1.373,0.256 13.095,3.844 22.169,7.209 C -4.766,-2.021 -2.118,-0.836 0,0"
		 style="fill:#231f20;fill-opacity:1;fill-rule:nonzero;stroke:none"
		 id="path179" /></g><g
	       id="g181"
	       transform="translate(466.1064,436.1914)"><path
		 d="m 0,0 c -2.545,-0.29 -8.296,-0.945 -9.186,-1.094 0.06,-0.948 0.111,-2.232 0.332,-4.164 0.805,-7.071 6.123,-11 15.927,-9.883 7.73,0.881 12.049,5.718 11.308,12.222 -0.258,2.263 -0.486,3.43 -0.795,4.876 -0.9,-0.056 -6.65,-0.711 -9.196,-1.001 z m 6.652,7.825 c 5.28,0.601 8.898,1.109 13.014,1.864 0.023,-1.047 0.027,-2.336 0.204,-3.892 0.236,-2.074 0.735,-4.357 1.208,-8.504 1.225,-10.747 -1.373,-18.539 -13.251,-19.892 -10.369,-1.182 -18.053,5.487 -19.062,14.347 -0.537,4.714 -0.666,7.946 -0.947,10.397 -0.176,1.555 -0.463,2.812 -0.675,3.838 4.18,0.19 7.82,0.51 13.099,1.111 z"
		 style="fill:#231f20;fill-opacity:1;fill-rule:nonzero;stroke:none"
		 id="path183" /></g></g></g></g><g
	 id="g1772"
	 transform="matrix(1.3333333,0,0,-1.3333333,0,1056)"
	 style="display:none"><g
	   id="g1106"><g
	     id="g1104"
	     clip-path="url(#clipPath43)"><g
	       id="g1098"
	       transform="translate(305.5811,552.0752)"><path
		 d="m 0,0 c -78.228,0 -141.645,-63.417 -141.645,-141.647 0,-78.228 63.417,-141.645 141.645,-141.645 78.228,0 141.646,63.417 141.646,141.645 C 141.646,-63.417 78.228,0 0,0 m 0,-5.93 c 36.251,0 70.332,-14.116 95.966,-39.75 25.633,-25.634 39.75,-59.716 39.75,-95.967 0,-36.25 -14.117,-70.332 -39.75,-95.965 -25.634,-25.633 -59.715,-39.75 -95.966,-39.75 -36.251,0 -70.331,14.117 -95.965,39.75 -25.634,25.633 -39.75,59.714 -39.75,95.965 0,36.251 14.116,70.333 39.75,95.967 25.634,25.634 59.714,39.75 95.965,39.75"
		 style="fill:#231f20;fill-opacity:1;fill-rule:nonzero;stroke:none"
		 id="path1096" /></g><g
	       id="g1102"
	       transform="translate(316.9941,413.3574)"><path
		 d="m 0,0 c -3.485,-21.824 0.017,-44.954 -12.023,-60.132 -16.942,-6.827 -27.043,4.598 -31.57,15.032 0.66,22.383 1.514,44.587 3.004,66.145 0.265,7.25 8.992,6.043 6.015,16.538 -18.49,-13.08 -8.269,-54.87 -13.533,-81.179 -5.481,-8.826 -27.218,-7.564 -33.071,0 -6.59,16.383 2.221,38.376 4.51,58.631 1.534,13.556 -0.181,26.012 3.006,36.077 7.401,23.39 21.63,24.231 41.867,15.731 C -26.894,39.67 -12.305,19.767 0,0 m 2.67,-4.169 c 0,0 0.863,24.193 3.613,32.64 1.886,5.803 4.421,3.835 4.692,2.967 C 12.305,22.743 8.846,27.436 7.859,16.194 7.114,10.363 7.382,-5.253 7.465,-9.277 16.509,-20.418 23.098,-37.842 21.047,-54.119 -5.609,-58.227 3.928,-25.465 2.67,-4.169 m -76.332,-67.99 c -4.828,-1.191 -9.645,4.493 -16.068,8.445 -4.729,2.739 -9.884,0.991 -13.999,6.587 -4.687,12.158 -1.412,26.953 -3.005,39.09 -0.804,6.109 -3.762,12.835 -3.029,18.016 2.167,15.298 18.304,19.181 24.075,30.088 2.429,0.423 3.309,0.785 4.51,-1.506 -1.459,-23.615 -13.756,-50.666 -4.51,-75.163 3.162,-6.859 14.728,-5.315 18.041,-12.025 1.085,-7.601 -2.203,-10.834 -6.015,-13.532 M 50.092,20.549 c 0,0 -0.347,-4.969 -0.797,-7.802 C 48.824,9.78 48.237,5.904 47.799,2.466 c -2.07,-16.22 0.084,-35.93 -2.295,-40.128 -2.563,-0.126 -3.807,5.312 -3.807,5.312 0,0 4.21,40.622 4.195,49.162 -2.701,7.011 -3.066,11.725 4.2,3.737 m 77.84,-9.893 c -8.104,72.956 -64.262,127.435 -144.468,124.642 -30.073,-1.048 -48.085,-6.46 -66.032,-18.653 -36.921,-25.097 -70.167,-66.487 -69.174,-122.05 1.329,-74.231 60.967,-130.162 123.778,-136.624 16.609,-1.711 33.839,-0.209 50.534,4.192 -2.007,-0.458 -4.028,-0.872 -6.061,-1.231 -14.8,-2.614 -36.567,-2.715 -51.392,1.236 3.459,0.495 10.013,-2.018 31.992,9.515 22.607,11.859 32.216,34.037 31.456,68.185 2.459,7.062 8.812,10.226 12.027,16.536 35.949,-20.258 36.34,14.787 40.589,55.623 1.072,10.296 6.615,19.676 6.014,27.06 C 86.315,49.763 75.801,61.547 69.133,60.314 48.625,55.726 50.469,70.402 34.048,74.007 26.783,74.757 20.974,67.892 14.281,68.078 6.061,72.38 5.146,81.623 -5.11,83.889 c -10.318,2.3 -16.058,-8.544 -24.831,-7.782 1.852,31.13 28.535,49.677 55.96,51.655 64.482,-17.049 91.625,-64.148 98.756,-109.722 8.825,-56.347 -16.07,-106.322 -55.39,-134.589 38.273,26.011 64.875,70.213 58.547,127.205 M 69.385,-116.549 c -14.338,-9.742 -30.314,-16.936 -46.815,-21.288 16.866,3.853 32.758,11.187 46.815,21.288"
		 style="fill:#231f20;fill-opacity:1;fill-rule:nonzero;stroke:none"
		 id="path1100" /></g></g></g><g
	   id="g1122"><g
	     id="g1120"
	     clip-path="url(#clipPath59)"><g
	       id="g1110"
	       transform="translate(305.5811,617.3765)"><path
		 d="m 0,0 c -114.293,0 -206.948,-92.653 -206.948,-206.949 0,-114.293 92.655,-206.947 206.948,-206.947 114.295,0 206.948,92.654 206.948,206.947 C 206.948,-92.653 114.295,0 0,0 m 0,-5.953 c 27.137,0 53.459,-5.314 78.234,-15.793 23.935,-10.123 45.43,-24.616 63.891,-43.077 18.461,-18.461 32.954,-39.957 43.077,-63.891 10.48,-24.776 15.793,-51.098 15.793,-78.235 0,-27.136 -5.313,-53.458 -15.793,-78.233 -10.123,-23.934 -24.616,-45.43 -43.077,-63.891 -18.461,-18.461 -39.956,-32.954 -63.891,-43.077 C 53.459,-402.629 27.137,-407.943 0,-407.943 c -27.137,0 -53.458,5.314 -78.234,15.793 -23.934,10.123 -45.429,24.616 -63.89,43.077 -18.462,18.461 -32.955,39.957 -43.078,63.891 -10.48,24.775 -15.793,51.097 -15.793,78.233 0,27.137 5.313,53.459 15.793,78.235 10.123,23.934 24.616,45.43 43.078,63.891 18.461,18.461 39.956,32.954 63.89,43.077 24.776,10.479 51.097,15.793 78.234,15.793"
		 style="fill:#231f20;fill-opacity:1;fill-rule:nonzero;stroke:none"
		 id="path1108" /></g><g
	       id="g1114"
	       transform="translate(305.5811,552.0752)"><path
		 d="m 0,0 c -78.228,0 -141.645,-63.417 -141.645,-141.647 0,-78.228 63.417,-141.645 141.645,-141.645 78.228,0 141.646,63.417 141.646,141.645 C 141.646,-63.417 78.228,0 0,0 m 0,-5.93 c 36.251,0 70.332,-14.116 95.966,-39.75 25.633,-25.634 39.75,-59.716 39.75,-95.967 0,-36.25 -14.117,-70.332 -39.75,-95.965 -25.634,-25.633 -59.715,-39.75 -95.966,-39.75 -36.251,0 -70.331,14.117 -95.965,39.75 -25.634,25.633 -39.75,59.714 -39.75,95.965 0,36.251 14.116,70.333 39.75,95.967 25.634,25.634 59.714,39.75 95.965,39.75"
		 style="fill:#231f20;fill-opacity:1;fill-rule:nonzero;stroke:none"
		 id="path1112" /></g><g
	       id="g1118"
	       transform="translate(305.5811,605.1719)"><path
		 d="m 0,0 c -107.555,0 -194.743,-87.188 -194.743,-194.744 0,-107.554 87.188,-194.744 194.743,-194.744 107.557,0 194.743,87.19 194.743,194.744 C 194.743,-87.188 107.557,0 0,0 m 0,-3.018 c 25.885,0 50.993,-5.069 74.628,-15.065 22.831,-9.657 43.335,-23.481 60.943,-41.09 17.609,-17.608 31.433,-38.113 41.089,-60.943 9.996,-23.635 15.066,-48.743 15.066,-74.628 0,-25.884 -5.07,-50.992 -15.066,-74.627 -9.656,-22.831 -23.48,-43.335 -41.089,-60.943 -17.608,-17.61 -38.113,-31.434 -60.943,-41.09 -23.635,-9.997 -48.743,-15.067 -74.628,-15.067 -25.884,0 -50.992,5.07 -74.628,15.067 -22.83,9.656 -43.334,23.48 -60.942,41.09 -17.609,17.608 -31.434,38.112 -41.09,60.943 -9.996,23.635 -15.066,48.743 -15.066,74.627 0,25.885 5.07,50.993 15.066,74.628 9.656,22.83 23.481,43.335 41.09,60.943 17.608,17.609 38.112,31.433 60.942,41.09 23.635,9.996 48.744,15.065 74.628,15.065"
		 style="fill:#231f20;fill-opacity:1;fill-rule:nonzero;stroke:none"
		 id="path1116" /></g></g></g><g
	   id="g1230"><g
	     id="g1228"
	     clip-path="url(#clipPath79)"><g
	       id="g1126"
	       transform="translate(170.4541,321.5283)"><path
		 d="m 0,0 c -6.256,-3.625 -12.198,-7.729 -18.133,-11.765 -0.355,0.686 -0.748,1.342 -1.186,1.903 -0.467,0.598 -0.98,1.1 -1.56,1.61 C -11.057,-3.104 -1.498,2.38 7.914,8.051 8.211,7.44 8.516,6.896 8.925,6.373 9.305,5.888 9.788,5.423 10.279,5.024 6.47,-2.348 2.301,-10.723 -0.836,-17.568 c 7.875,1.399 16.622,3.299 24.667,5.255 0.297,-0.612 0.66,-1.23 1.069,-1.753 0.409,-0.524 0.893,-0.989 1.413,-1.425 -7.835,-7.69 -18.734,-18.314 -23.272,-23.364 -0.677,1.096 -1.391,2.164 -2.179,3.172 -0.789,1.009 -1.681,1.997 -2.611,2.954 4.99,4.322 10.846,9.922 16.171,15.046 l -0.059,0.076 c -7.982,-1.725 -15.898,-3.457 -23.793,-5.292 -0.138,0.253 -0.305,0.544 -0.48,0.768 -0.175,0.224 -0.417,0.456 -0.63,0.651 3.569,7.063 7.146,14.193 10.599,21.405 z"
		 style="fill:#231f20;fill-opacity:1;fill-rule:nonzero;stroke:none"
		 id="path1124" /></g><g
	       id="g1130"
	       transform="translate(200.0918,276.8105)"><path
		 d="M 0,0 C 1.361,3.847 2.699,7.59 3.86,11.416 0.273,9.567 -3.233,7.593 -6.728,5.484 Z m 1.829,-17.646 c -1.116,1.033 -2.056,1.982 -3.085,2.822 -1.029,0.839 -2.185,1.597 -3.274,2.363 1.265,3.129 2.488,6.355 3.607,9.604 -1.551,1.325 -3.064,2.621 -4.645,3.91 -1.286,1.049 -2.567,2.03 -3.883,3.042 -3.03,-1.691 -5.877,-3.531 -8.643,-5.498 -0.528,0.553 -0.99,1.113 -1.578,1.592 -0.588,0.48 -1.229,0.819 -1.987,1.315 5.127,2.612 21.309,11.203 31.304,17.009 0.418,-0.463 0.768,-0.934 1.247,-1.324 0.477,-0.388 1.008,-0.638 1.546,-0.957 C 8.729,5.305 3.92,-9.376 1.829,-17.646"
		 style="fill:#231f20;fill-opacity:1;fill-rule:nonzero;stroke:none"
		 id="path1128" /></g><g
	       id="g1134"
	       transform="translate(229.6572,277.8643)"><path
		 d="m 0,0 c -2.155,-3.741 -4.246,-7.464 -6.317,-11.25 0.309,-0.224 0.578,-0.425 0.869,-0.584 3.662,-2.004 6.775,-1.058 8.915,2.854 C 6.153,-4.07 4.535,-2.481 0,0 m -6.922,-13.244 -0.375,0.205 -0.933,-1.706 c -2.55,-4.661 -4.219,-7.91 -5.973,-11.709 -0.87,0.584 -1.926,1.324 -3.299,2.075 -1.373,0.751 -2.564,1.241 -3.525,1.659 2.253,3.525 4.089,6.684 6.638,11.344 l 3.097,5.659 c 2.55,4.66 4.22,7.91 5.974,11.711 C -4.449,5.41 -3.394,4.671 -2.021,3.92 -0.522,3.1 1.381,2.329 4.21,0.778 c 4.203,-2.299 5.537,-3.516 6.425,-5.353 1.004,-2.117 1.043,-4.518 -0.301,-6.973 -2.208,-4.036 -5.95,-5.341 -10.639,-4.128 0.091,-6.159 0.659,-12.633 1.123,-18.997 -1.203,0.767 -2.382,1.574 -3.631,2.258 -1.249,0.683 -2.607,1.264 -3.901,1.863 z"
		 style="fill:#231f20;fill-opacity:1;fill-rule:nonzero;stroke:none"
		 id="path1132" /></g><g
	       id="g1138"
	       transform="translate(254.4873,261.1133)"><path
		 d="m 0,0 c 0.546,1.717 1.064,3.345 1.13,4.021 -1.763,0.56 -5.646,1.498 -8.458,2.047 0.351,0.635 0.643,1.239 0.859,1.916 0.216,0.679 0.327,1.34 0.407,2.062 C -1.992,8.601 0.013,7.862 5.617,6.078 11.222,4.294 13.284,3.737 17.169,2.649 16.817,2.015 16.526,1.411 16.311,0.732 16.095,0.055 15.983,-0.606 15.903,-1.33 13.563,-0.236 9.854,1.243 8.045,1.818 7.754,1.215 7.235,-0.412 6.688,-2.13 L 3.092,-13.429 C 1.479,-18.491 0.462,-22 -0.533,-26.063 c -0.965,0.407 -2.143,0.93 -3.634,1.406 -1.491,0.474 -2.755,0.727 -3.778,0.953 1.538,3.891 2.736,7.343 4.347,12.404 z"
		 style="fill:#231f20;fill-opacity:1;fill-rule:nonzero;stroke:none"
		 id="path1136" /></g><g
	       id="g1142"
	       transform="translate(275.4463,250.0234)"><path
		 d="M 0,0 C 0.863,5.242 1.363,8.86 1.76,13.026 2.774,12.764 4.015,12.415 5.56,12.161 7.104,11.906 8.391,11.839 9.436,11.762 8.477,7.689 7.789,4.102 6.927,-1.141 L 5.878,-7.505 c -0.862,-5.241 -1.362,-8.86 -1.76,-13.024 -1.014,0.262 -2.255,0.611 -3.799,0.865 -1.544,0.255 -2.831,0.322 -3.876,0.398 0.959,4.072 1.646,7.661 2.509,12.902 z"
		 style="fill:#231f20;fill-opacity:1;fill-rule:nonzero;stroke:none"
		 id="path1140" /></g><g
	       id="g1146"
	       transform="translate(306.3242,240.1875)"><path
		 d="M 0,0 C -1.313,3.863 -2.581,7.631 -4.04,11.354 -5.712,7.682 -7.242,3.958 -8.679,0.14 Z m 12.365,-12.723 c -1.515,0.119 -2.841,0.284 -4.169,0.305 -1.328,0.021 -2.706,-0.1 -4.035,-0.173 -0.944,3.241 -1.982,6.531 -3.116,9.775 -2.038,0.08 -4.029,0.159 -6.068,0.192 -1.661,0.026 -3.274,0.005 -4.934,-0.015 -1.332,-3.204 -2.428,-6.413 -3.381,-9.671 -0.758,0.108 -1.467,0.262 -2.225,0.274 -0.759,0.012 -1.473,-0.118 -2.375,-0.199 2.408,5.226 9.793,21.995 14.045,32.74 0.616,-0.105 1.182,-0.256 1.799,-0.266 0.616,-0.01 1.188,0.123 1.806,0.21 C 3.569,9.571 8.886,-4.935 12.365,-12.723"
		 style="fill:#231f20;fill-opacity:1;fill-rule:nonzero;stroke:none"
		 id="path1144" /></g><g
	       id="g1150"
	       transform="translate(324.5449,248.1982)"><path
		 d="m 0,0 c -0.857,5.243 -1.541,8.832 -2.496,12.907 1.045,0.075 2.332,0.142 3.877,0.395 1.545,0.252 2.786,0.599 3.801,0.86 C 5.574,9.996 6.07,6.376 6.929,1.133 l 1.042,-6.366 c 0.566,-3.464 1.195,-7.015 1.64,-9.442 3.511,0.575 7.085,1.352 10.621,2.363 0.014,-0.67 -0.003,-1.154 0.158,-2.137 0.161,-0.984 0.331,-1.436 0.516,-1.983 -1.693,-0.228 -3.924,-0.401 -8.23,-1.106 -7.631,-1.248 -8.872,-1.596 -9.887,-1.858 -0.393,4.166 -0.89,7.786 -1.747,13.029 z"
		 style="fill:#231f20;fill-opacity:1;fill-rule:nonzero;stroke:none"
		 id="path1148" /></g><g
	       id="g1154"
	       transform="translate(378.4043,256.5176)"><path
		 d="m 0,0 c -2.844,2.927 -5.604,5.786 -8.519,8.524 0.065,-4.035 0.28,-8.054 0.62,-12.121 z M 16.628,-6.188 C 15.207,-6.73 13.939,-7.151 12.731,-7.701 11.522,-8.252 10.329,-8.951 9.16,-9.588 6.917,-7.065 4.568,-4.539 2.152,-2.094 0.277,-2.896 -1.556,-3.678 -3.412,-4.522 c -1.511,-0.689 -2.959,-1.4 -4.45,-2.132 0.171,-3.466 0.557,-6.834 1.093,-10.186 -0.729,-0.228 -1.436,-0.393 -2.127,-0.708 -0.69,-0.314 -1.279,-0.739 -2.06,-1.198 -0.065,5.754 -0.587,24.069 -1.357,35.606 0.601,0.169 1.178,0.276 1.74,0.532 0.56,0.254 1.02,0.62 1.542,0.958 8.15,-8.172 19.175,-18.996 25.659,-24.538"
		 style="fill:#231f20;fill-opacity:1;fill-rule:nonzero;stroke:none"
		 id="path1152" /></g><g
	       id="g1158"
	       transform="translate(391.3086,284.0049)"><path
		 d="m 0,0 c 2.421,-3.576 4.853,-7.087 7.351,-10.608 0.337,0.181 0.635,0.335 0.906,0.527 3.405,2.415 3.918,5.629 1.338,9.267 C 6.355,3.752 4.218,2.992 0,0 m 8.88,-12.024 -0.349,-0.247 1.125,-1.587 c 3.075,-4.334 5.266,-7.259 7.914,-10.499 -0.906,-0.527 -2.033,-1.153 -3.31,-2.058 -1.278,-0.906 -2.239,-1.764 -3.036,-2.444 -2.184,3.569 -4.22,6.604 -7.294,10.938 l -3.734,5.263 c -3.074,4.334 -5.265,7.259 -7.913,10.501 0.906,0.526 2.033,1.151 3.31,2.057 1.393,0.989 2.92,2.363 5.552,4.227 3.908,2.772 5.586,3.439 7.627,3.434 2.344,-0.025 4.519,-1.041 6.139,-3.325 2.662,-3.753 2.197,-7.689 -0.947,-11.375 5.578,-2.615 11.648,-4.94 17.575,-7.309 -1.216,-0.746 -2.459,-1.453 -3.619,-2.278 -1.161,-0.823 -2.278,-1.79 -3.385,-2.691 z"
		 style="fill:#231f20;fill-opacity:1;fill-rule:nonzero;stroke:none"
		 id="path1156" /></g><g
	       id="g1162"
	       transform="translate(415.9258,297.6621)"><path
		 d="m 0,0 c -1.288,1.262 -2.508,2.456 -3.082,2.819 -1.294,-1.322 -3.879,-4.367 -5.633,-6.633 -0.409,0.599 -0.817,1.131 -1.325,1.629 -0.509,0.498 -1.049,0.895 -1.657,1.291 3.122,2.985 4.682,4.444 8.798,8.646 4.116,4.202 5.541,5.793 8.26,8.773 0.41,-0.599 0.817,-1.131 1.326,-1.629 C 7.195,14.397 7.735,14.001 8.344,13.605 6.314,12.008 3.323,9.36 1.996,8.004 2.403,7.472 3.624,6.277 4.911,5.016 l 8.473,-8.297 c 3.796,-3.717 6.471,-6.204 9.653,-8.922 -0.798,-0.679 -1.796,-1.494 -2.891,-2.613 -1.095,-1.119 -1.889,-2.133 -2.552,-2.945 -2.783,3.124 -5.326,5.747 -9.121,9.464 z"
		 style="fill:#231f20;fill-opacity:1;fill-rule:nonzero;stroke:none"
		 id="path1160" /></g><g
	       id="g1166"
	       transform="translate(437.7598,326.5244)"><path
		 d="m 0,0 c -2.789,0.726 -4.975,-0.009 -6.625,-2.386 -1.651,-2.376 -1.18,-5.187 0.69,-6.487 5.766,-4.006 12.553,8.838 21.397,2.693 5.22,-3.627 5.934,-10.247 1.63,-16.441 -1.948,-2.805 -4.391,-4.573 -6.033,-5.108 -1.44,1.752 -2.599,3.077 -4.163,4.568 l 0.515,0.74 c 2.557,-1.142 5.75,-0.703 7.943,2.452 2.111,3.039 1.375,5.803 -0.807,7.32 -5.882,4.086 -12.391,-8.605 -21.234,-2.46 -5.376,3.735 -5.466,9.921 -2.246,14.557 1.95,2.806 4.152,4.395 6.349,5.063 0.883,-1.307 1.628,-2.229 2.99,-3.926 z"
		 style="fill:#231f20;fill-opacity:1;fill-rule:nonzero;stroke:none"
		 id="path1164" /></g><g
	       id="g1170"
	       transform="translate(151.8779,439.7056)"><path
		 d="m 0,0 c 1.271,-0.648 2.604,-1.159 3.912,-1.429 1.078,-2.631 1.517,-5.962 1.14,-9.833 -1.066,-10.953 -8.54,-16.755 -17.463,-15.887 -13.03,1.268 -17.176,10.583 -16.211,20.498 0.321,3.304 1.717,7.362 3.25,9.405 1.498,-0.765 3.118,-1.256 4.71,-1.554 l -0.065,-0.661 c -3.156,-2.076 -4.665,-4.359 -4.991,-7.711 -0.492,-5.052 3.343,-11.192 13.352,-12.165 9.725,-0.946 14.11,4.441 14.637,9.871 0.294,3.021 -0.782,6.653 -2.709,8.889 z"
		 style="fill:#231f20;fill-opacity:1;fill-rule:nonzero;stroke:none"
		 id="path1168" /></g><g
	       id="g1174"
	       transform="translate(140.2813,450.6396)"><path
		 d="m 0,0 c -5.098,1.497 -8.629,2.436 -12.715,3.339 0.834,2.672 1.819,5.35 2.607,8.036 1.31,4.461 2.341,8.312 2.566,9.581 0.52,-0.252 1.039,-0.503 1.858,-0.744 0.956,-0.281 1.392,-0.31 2.102,-0.421 C -4.825,16.398 -6.748,11.03 -7.149,9.665 -3.893,8.461 -0.616,7.499 2.707,6.523 3.778,10.51 4.543,13.449 5.377,16.964 6.37,16.475 6.767,16.309 7.358,16.135 7.859,15.988 8.296,15.958 9.291,15.813 8.003,12.434 6.863,9.06 5.848,5.601 7.76,5.039 9.703,4.419 11.66,3.844 13.572,3.283 15.543,2.753 17.39,2.31 c 1.003,3.414 1.85,6.972 2.469,10.599 0.611,-0.279 1.039,-0.503 1.995,-0.784 0.956,-0.281 1.438,-0.323 2.011,-0.393 -0.527,-1.625 -1.337,-3.711 -2.567,-7.899 -2.179,-7.42 -2.403,-8.689 -2.606,-9.717 -3.925,1.449 -7.404,2.57 -12.502,4.067 z"
		 style="fill:#231f20;fill-opacity:1;fill-rule:nonzero;stroke:none"
		 id="path1172" /></g><g
	       id="g1178"
	       transform="translate(137.4912,484.314)"><path
		 d="m 0,0 c 0.462,0.561 0.881,1.143 1.217,1.771 0.336,0.627 0.588,1.299 0.798,1.993 9.874,2.464 19.683,4.908 29.624,7.497 -6.651,3.559 -18.027,9.648 -20.066,10.364 0.461,0.56 0.881,1.143 1.217,1.77 0.335,0.627 0.588,1.299 0.798,1.992 C 25.4,18.204 30.963,15.227 42.089,9.274 41.649,8.756 41.275,8.257 40.962,7.671 40.648,7.086 40.441,6.497 40.298,5.927 30.455,3.823 20.412,1.343 10.189,-1.472 c 3.092,-1.762 6.564,-3.62 9.701,-5.299 6.691,-3.581 9.1,-4.709 10.715,-5.412 -0.483,-0.602 -0.925,-1.226 -1.261,-1.854 -0.336,-0.627 -0.611,-1.341 -0.821,-2.036 -1.1,0.859 -11.555,7.261 -20.087,11.827 C 4.671,-2.231 2.03,-1.033 0,0"
		 style="fill:#231f20;fill-opacity:1;fill-rule:nonzero;stroke:none"
		 id="path1176" /></g><g
	       id="g1182"
	       transform="translate(167.7705,518.8359)"><path
		 d="m 0,0 c -1.395,1.142 -2.716,2.225 -3.319,2.535 -1.173,-1.431 -3.478,-4.694 -5.025,-7.106 -0.46,0.56 -0.913,1.055 -1.464,1.506 -0.55,0.451 -1.124,0.798 -1.764,1.139 2.844,3.249 4.271,4.84 7.999,9.389 3.726,4.551 5.006,6.262 7.451,9.471 0.46,-0.561 0.914,-1.056 1.465,-1.506 0.55,-0.451 1.124,-0.799 1.764,-1.137 C 5.228,12.52 2.482,9.618 1.279,8.15 1.733,7.656 3.055,6.573 4.449,5.431 l 9.174,-7.515 c 4.11,-3.367 6.996,-5.608 10.405,-8.035 -0.734,-0.747 -1.656,-1.647 -2.648,-2.858 -0.991,-1.211 -1.693,-2.292 -2.281,-3.158 -3.049,2.865 -5.815,5.253 -9.925,8.62 z"
		 style="fill:#231f20;fill-opacity:1;fill-rule:nonzero;stroke:none"
		 id="path1180" /></g><g
	       id="g1186"
	       transform="translate(185.7939,545.2549)"><path
		 d="m 0,0 c 2.74,-3.336 5.485,-6.605 8.297,-9.879 0.318,0.211 0.601,0.391 0.853,0.608 3.166,2.719 3.379,5.965 0.475,9.347 C 5.979,4.322 3.922,3.368 0,0 m 9.949,-11.148 -0.324,-0.278 1.268,-1.475 c 3.46,-4.03 5.911,-6.739 8.846,-9.72 -0.853,-0.608 -1.918,-1.334 -3.104,-2.354 -1.188,-1.019 -2.067,-1.962 -2.796,-2.713 -2.504,3.352 -4.811,6.184 -8.272,10.213 l -4.202,4.894 c -3.461,4.03 -5.912,6.738 -8.846,9.72 0.852,0.607 1.917,1.334 3.104,2.353 1.295,1.112 2.688,2.621 5.135,4.722 3.634,3.121 5.243,3.94 7.274,4.122 2.336,0.193 4.595,-0.618 6.418,-2.741 2.997,-3.49 2.898,-7.451 0.109,-11.409 5.794,-2.089 12.051,-3.842 18.169,-5.652 -1.141,-0.855 -2.313,-1.675 -3.393,-2.601 -1.079,-0.927 -2.102,-1.993 -3.119,-2.992 z"
		 style="fill:#231f20;fill-opacity:1;fill-rule:nonzero;stroke:none"
		 id="path1184" /></g><g
	       id="g1190"
	       transform="translate(229.1172,554.2407)"><path
		 d="m 0,0 c -3.063,2.696 -6.04,5.332 -9.159,7.834 0.38,-4.018 0.908,-8.009 1.564,-12.037 z m 17.062,-4.872 c -1.374,-0.651 -2.606,-1.17 -3.768,-1.813 -1.162,-0.643 -2.296,-1.433 -3.412,-2.159 -2.434,2.34 -4.973,4.676 -7.572,6.923 -1.808,-0.946 -3.574,-1.87 -5.359,-2.857 -1.452,-0.804 -2.841,-1.626 -4.27,-2.47 0.441,-3.442 1.09,-6.77 1.885,-10.07 -0.71,-0.285 -1.401,-0.505 -2.065,-0.872 -0.664,-0.367 -1.218,-0.836 -1.96,-1.356 -0.516,5.733 -2.466,23.953 -4.132,35.387 0.585,0.216 1.153,0.367 1.692,0.666 0.54,0.298 0.968,0.698 1.462,1.083 8.764,-7.511 20.601,-17.442 27.499,-22.462"
		 style="fill:#231f20;fill-opacity:1;fill-rule:nonzero;stroke:none"
		 id="path1188" /></g><g
	       id="g1194"
	       transform="translate(245.418,569.5391)"><path
		 d="m 0,0 c -1.652,5.048 -2.879,8.49 -4.447,12.363 1.02,0.234 2.282,0.497 3.769,0.985 1.488,0.486 2.66,1.02 3.622,1.44 C 3.973,10.732 5.019,7.232 6.671,2.184 l 2.007,-6.13 c 1.092,-3.336 2.259,-6.747 3.071,-9.076 3.38,1.107 6.792,2.423 10.13,3.964 0.116,-0.66 0.174,-1.14 0.483,-2.087 0.311,-0.946 0.548,-1.367 0.816,-1.878 -1.638,-0.487 -3.816,-1 -7.962,-2.357 -7.348,-2.406 -8.521,-2.939 -9.483,-3.354 -1.027,4.055 -2.074,7.555 -3.726,12.604 z"
		 style="fill:#231f20;fill-opacity:1;fill-rule:nonzero;stroke:none"
		 id="path1192" /></g><g
	       id="g1198"
	       transform="translate(293.0098,582.4771)"><path
		 d="m 0,0 c -1.111,-7.145 -1.654,-14.347 -2.243,-21.5 -0.757,0.154 -1.514,0.261 -2.226,0.273 -0.759,0.012 -1.471,-0.071 -2.232,-0.201 2.167,10.875 3.907,21.758 5.411,32.642 0.661,-0.153 1.276,-0.258 1.94,-0.269 0.617,-0.009 1.283,0.075 1.901,0.209 3.341,-7.596 7.236,-16.103 10.591,-22.845 3.86,7.006 7.879,15.005 11.414,22.489 0.662,-0.153 1.372,-0.259 2.036,-0.27 0.663,-0.01 1.329,0.074 1.995,0.207 1.058,-10.927 2.475,-26.082 3.552,-32.788 -1.278,0.163 -2.557,0.278 -3.837,0.299 -1.281,0.02 -2.611,-0.053 -3.941,-0.174 -0.225,6.597 -0.902,14.672 -1.543,22.035 l -0.094,0.002 c -3.675,-7.294 -7.302,-14.541 -10.835,-21.837 -0.284,0.053 -0.615,0.105 -0.9,0.11 -0.284,0.004 -0.617,-0.038 -0.902,-0.08 -3.252,7.215 -6.551,14.478 -9.992,21.697 z"
		 style="fill:#231f20;fill-opacity:1;fill-rule:nonzero;stroke:none"
		 id="path1196" /></g><g
	       id="g1202"
	       transform="translate(347.9502,567.7085)"><path
		 d="M 0,0 C -0.396,4.062 -0.77,8.021 -1.338,11.98 -3.806,8.785 -6.146,5.51 -8.419,2.119 Z m 9.134,-15.214 c -1.449,0.462 -2.702,0.924 -3.99,1.249 -1.289,0.324 -2.658,0.522 -3.969,0.754 -0.179,3.372 -0.438,6.812 -0.8,10.231 -1.967,0.543 -3.888,1.076 -5.865,1.574 -1.611,0.405 -3.187,0.753 -4.809,1.112 -2.029,-2.815 -3.829,-5.689 -5.502,-8.644 -0.713,0.278 -1.368,0.59 -2.104,0.775 -0.737,0.185 -1.461,0.221 -2.359,0.349 3.54,4.539 14.564,19.18 21.161,28.674 0.575,-0.243 1.092,-0.52 1.69,-0.671 0.599,-0.15 1.185,-0.151 1.807,-0.21 1.269,-11.474 3.131,-26.814 4.74,-35.193"
		 style="fill:#231f20;fill-opacity:1;fill-rule:nonzero;stroke:none"
		 id="path1200" /></g><g
	       id="g1206"
	       transform="translate(380.5781,574.4956)"><path
		 d="m 0,0 c -1.95,-3.853 -3.837,-7.683 -5.702,-11.576 0.322,-0.207 0.6,-0.393 0.9,-0.537 3.765,-1.803 6.823,-0.69 8.749,3.332 C 6.365,-3.732 4.664,-2.234 0,0 m -6.198,-13.601 -0.385,0.185 -0.841,-1.754 c -2.295,-4.792 -3.787,-8.128 -5.334,-12.016 -0.9,0.537 -1.994,1.218 -3.406,1.894 -1.411,0.677 -2.628,1.102 -3.61,1.467 2.059,3.642 3.723,6.896 6.018,11.688 l 2.787,5.819 C -8.674,-1.526 -7.182,1.809 -5.635,5.7 -4.734,5.163 -3.641,4.481 -2.229,3.805 -0.688,3.068 1.254,2.4 4.163,1.004 c 4.321,-2.069 5.72,-3.212 6.705,-5 1.117,-2.06 1.285,-4.455 0.076,-6.979 -1.987,-4.15 -5.654,-5.656 -10.402,-4.696 0.423,-6.147 1.338,-12.582 2.146,-18.912 -1.243,0.7 -2.465,1.443 -3.749,2.058 -1.283,0.614 -2.67,1.121 -3.996,1.65 z"
		 style="fill:#231f20;fill-opacity:1;fill-rule:nonzero;stroke:none"
		 id="path1204" /></g><g
	       id="g1210"
	       transform="translate(406.1406,546.0396)"><path
		 d="M 0,0 C 4.187,1.423 9.724,4.796 14.138,7.347 14.659,6.853 15.152,6.321 15.768,5.877 16.383,5.433 17.043,5.131 17.752,4.732 13.978,3.07 5.039,-1.124 -0.921,-4.191 -1.81,-5.422 -2.803,-6.635 -3.72,-7.904 c -1.832,-2.538 -3.682,-5.18 -5.419,-8.314 -1.021,0.854 -2.052,1.775 -3.13,2.552 -1.076,0.778 -2.275,1.468 -3.407,2.169 1.893,2.377 4.1,4.704 5.822,7.088 0.86,1.192 1.683,2.411 2.505,3.631 1.04,7.03 2.6,18.425 2.991,21.483 1.098,-0.911 2.169,-1.859 3.322,-2.692 C 0.117,17.18 1.315,16.49 2.524,15.729 1.544,10.645 0.124,2.602 -0.077,0.056 Z"
		 style="fill:#231f20;fill-opacity:1;fill-rule:nonzero;stroke:none"
		 id="path1208" /></g><g
	       id="g1214"
	       transform="translate(421.9248,534.4707)"><path
		 d="M 0,0 C 3.805,3.708 6.354,6.326 9.145,9.443 9.805,8.63 10.597,7.613 11.689,6.492 12.782,5.371 13.778,4.553 14.574,3.874 11.387,1.164 8.705,-1.318 4.901,-5.027 L 0.281,-9.53 c -2.513,-2.45 -5.061,-5.001 -6.795,-6.757 2.484,-2.547 5.169,-5.03 8.025,-7.35 -0.542,-0.396 -0.948,-0.659 -1.661,-1.354 -0.713,-0.696 -0.987,-1.094 -1.329,-1.56 -1.158,1.256 -2.578,2.986 -5.624,6.111 -5.397,5.537 -6.393,6.355 -7.19,7.037 3.189,2.71 5.87,5.192 9.674,8.9 z"
		 style="fill:#231f20;fill-opacity:1;fill-rule:nonzero;stroke:none"
		 id="path1212" /></g><g
	       id="g1218"
	       transform="translate(442.8047,498.1499)"><path
		 d="M 0,0 C 2.442,3.27 4.831,6.448 7.076,9.758 3.102,9.057 -0.835,8.212 -4.798,7.235 Z m -3.491,-17.399 c -0.76,1.317 -1.375,2.503 -2.109,3.61 -0.734,1.107 -1.613,2.175 -2.425,3.231 2.137,2.613 4.262,5.331 6.296,8.101 -1.088,1.727 -2.15,3.414 -3.277,5.113 -0.918,1.384 -1.848,2.702 -2.806,4.06 -3.396,-0.715 -6.661,-1.628 -9.887,-2.685 -0.34,0.684 -0.615,1.356 -1.034,1.989 -0.42,0.632 -0.932,1.147 -1.509,1.846 5.673,0.972 23.68,4.374 34.948,6.95 0.262,-0.566 0.458,-1.119 0.799,-1.633 0.341,-0.514 0.774,-0.91 1.194,-1.37 C 9.913,2.475 0.961,-10.12 -3.491,-17.399"
		 style="fill:#231f20;fill-opacity:1;fill-rule:nonzero;stroke:none"
		 id="path1216" /></g><g
	       id="g1222"
	       transform="translate(472.3652,487.2217)"><path
		 d="m 0,0 c 0.114,-0.717 0.272,-1.417 0.521,-2.084 0.247,-0.667 0.583,-1.301 0.964,-1.919 -4.697,-9.028 -9.366,-17.995 -14.013,-27.156 7.072,2.623 19.171,7.109 21.056,8.164 0.114,-0.717 0.273,-1.417 0.52,-2.084 0.247,-0.667 0.584,-1.301 0.965,-1.92 -13.207,-4.088 -19.123,-6.282 -30.955,-10.668 -0.097,0.671 -0.223,1.283 -0.454,1.905 -0.231,0.623 -0.535,1.168 -0.866,1.651 4.947,8.766 9.743,17.932 14.409,27.454 -3.369,-1.148 -7.06,-2.517 -10.396,-3.754 -7.117,-2.639 -9.559,-3.696 -11.154,-4.44 -0.131,0.761 -0.306,1.506 -0.554,2.173 -0.247,0.667 -0.6,1.346 -0.981,1.964 1.373,0.256 13.095,3.844 22.169,7.209 C -4.766,-2.021 -2.118,-0.836 0,0"
		 style="fill:#231f20;fill-opacity:1;fill-rule:nonzero;stroke:none"
		 id="path1220" /></g><g
	       id="g1226"
	       transform="translate(466.1064,436.1914)"><path
		 d="m 0,0 c -2.545,-0.29 -8.296,-0.945 -9.186,-1.094 0.06,-0.948 0.111,-2.232 0.332,-4.164 0.805,-7.071 6.123,-11 15.927,-9.883 7.73,0.881 12.049,5.718 11.308,12.222 -0.258,2.263 -0.486,3.43 -0.795,4.876 -0.9,-0.056 -6.65,-0.711 -9.196,-1.001 z m 6.652,7.825 c 5.28,0.601 8.898,1.109 13.014,1.864 0.023,-1.047 0.027,-2.336 0.204,-3.892 0.236,-2.074 0.735,-4.357 1.208,-8.504 1.225,-10.747 -1.373,-18.539 -13.251,-19.892 -10.369,-1.182 -18.053,5.487 -19.062,14.347 -0.537,4.714 -0.666,7.946 -0.947,10.397 -0.176,1.555 -0.463,2.812 -0.675,3.838 4.18,0.19 7.82,0.51 13.099,1.111 z"
		 style="fill:#231f20;fill-opacity:1;fill-rule:nonzero;stroke:none"
		 id="path1224" /></g></g></g></g></svg>
